<svg width="298" height="59" viewBox="0 0 298 59" fill="none" xmlns="http://www.w3.org/2000/svg">
<path d="M10.3135 50.0778C7.36787 50.0778 5.11529 49.0564 3.55581 47.0135C2.02521 44.9706 1.17328 42.1657 1 38.5988L5.33188 37.2855C5.47627 39.8148 5.90946 41.8576 6.63145 43.4141C7.3823 44.9706 8.60969 45.7489 10.3135 45.7489C11.5842 45.7489 12.5372 45.3597 13.1726 44.5815C13.8368 43.7708 14.1689 42.6197 14.1689 41.128C14.1689 39.5067 13.8657 38.161 13.2592 37.0909C12.6528 36.0208 11.6853 34.8373 10.3569 33.5402L4.46551 27.7034C3.28146 26.536 2.41508 25.2876 1.86638 23.9581C1.34655 22.5962 1.08664 20.9424 1.08664 18.9968C1.08664 16.1109 1.82306 13.8734 3.2959 12.2845C4.76874 10.6956 6.77584 9.90115 9.31721 9.90115C12.0896 9.90115 14.1833 10.728 15.5984 12.3818C17.0135 14.0356 17.8654 16.5973 18.1542 20.0669L13.9956 21.3316C13.8513 19.0293 13.4469 17.262 12.7827 16.0298C12.1474 14.7652 10.9922 14.1328 9.31721 14.1328C8.07538 14.1328 7.12239 14.5057 6.45817 15.2516C5.79395 15.9649 5.46184 17.0351 5.46184 18.4618C5.46184 19.6292 5.63511 20.6181 5.98166 21.4288C6.32821 22.2071 6.92024 23.0015 7.75773 23.8122L13.6924 29.649C15.223 31.173 16.4359 32.8268 17.3312 34.6103C18.2553 36.3938 18.7174 38.4204 18.7174 40.6903C18.7174 43.5762 17.9377 45.8623 16.3782 47.5485C14.8187 49.2347 12.7971 50.0778 10.3135 50.0778ZM22.5146 10.2416H27.4096V28.8221L35.4669 10.2416H40.0154L33.0844 27.6061L41.1416 49.6401H36.3766L29.6622 31.1568L27.4096 35.729V49.6401H22.5146V10.2416ZM44.2224 10.2416H49.0307V49.6401H44.2224V10.2416ZM54.9675 10.2416H59.7758V49.6401H54.9675V10.2416ZM65.4526 10.2416H68.7885L78.7519 36.41V10.2416H82.8238V49.6401H79.7049L69.6116 22.7421V49.6401H65.4526V10.2416ZM96.6994 50.1265C93.5229 50.1265 91.227 49.0077 89.8117 46.7703C88.3964 44.5004 87.6891 41.1442 87.6891 36.7018V23.5204C87.6891 20.4722 87.9632 17.9754 88.5121 16.0298C89.0895 14.0518 90.0574 12.5439 91.4145 11.5063C92.8007 10.4362 94.6925 9.90115 97.0893 9.90115C100.324 9.90115 102.648 10.8253 104.064 12.6736C105.507 14.522 106.23 17.4242 106.23 21.3802V22.8394H101.638V21.6234C101.638 19.7426 101.537 18.2997 101.334 17.2944C101.132 16.2568 100.699 15.4785 100.035 14.9597C99.3994 14.4409 98.4463 14.1815 97.1759 14.1815C95.8188 14.1815 94.8076 14.5382 94.1436 15.2516C93.4796 15.9325 93.0464 16.8567 92.844 18.024C92.6707 19.1914 92.5841 20.7479 92.5841 22.6935V37.2855C92.5841 40.3012 92.9015 42.4738 93.5371 43.8032C94.2011 45.1003 95.4573 45.7489 97.3058 45.7489C99.1252 45.7489 100.367 45.0354 101.031 43.6087C101.724 42.1819 102.071 39.8959 102.071 36.7504V34.0266H97.6091V30.1354H106.489V49.6401H103.414L102.937 45.1165C101.84 48.4565 99.7608 50.1265 96.6994 50.1265Z" fill="#060D10" stroke="#060D10"/>
<path d="M177.161 49.5367C174.216 49.5367 171.963 48.5152 170.404 46.4724C168.873 44.4295 168.021 41.6245 167.848 38.0576L172.18 36.7444C172.324 39.2736 172.757 41.3165 173.479 42.873C174.23 44.4295 175.458 45.2077 177.161 45.2077C178.432 45.2077 179.385 44.8186 180.02 44.0404C180.685 43.2297 181.017 42.0786 181.017 40.5869C181.017 38.9656 180.714 37.6199 180.107 36.5498C179.501 35.4797 178.533 34.2962 177.205 32.9991L171.313 27.1623C170.129 25.9949 169.263 24.7465 168.714 23.417C168.194 22.0551 167.934 20.4013 167.934 18.4557C167.934 15.5697 168.671 13.3323 170.144 11.7434C171.617 10.1545 173.624 9.36002 176.165 9.36002C178.937 9.36002 181.031 10.1869 182.446 11.8407C183.861 13.4944 184.713 16.0561 185.002 19.5258L180.843 20.7904C180.699 18.4882 180.295 16.7208 179.631 15.4887C178.995 14.224 177.84 13.5917 176.165 13.5917C174.923 13.5917 173.97 13.9646 173.306 14.7104C172.642 15.4238 172.31 16.4939 172.31 17.9207C172.31 19.088 172.483 20.077 172.83 20.8877C173.176 21.6659 173.768 22.4604 174.606 23.2711L180.54 29.1079C182.071 30.6319 183.284 32.2857 184.179 34.0691C185.103 35.8526 185.565 37.8793 185.565 40.1492C185.565 43.0351 184.785 45.3212 183.226 47.0074C181.667 48.6936 179.645 49.5367 177.161 49.5367ZM198.156 49.5367C194.691 49.5367 192.25 48.3855 190.835 46.0832C189.42 43.7485 188.713 40.5383 188.713 36.4525V22.5415C188.713 18.2287 189.406 14.9536 190.792 12.7162C192.178 10.4787 194.633 9.36002 198.156 9.36002C201.304 9.36002 203.557 10.3166 204.914 12.2298C206.3 14.143 206.993 16.964 206.993 20.6931V23.8061H202.358V21.0336C202.358 19.2178 202.286 17.8234 202.141 16.8506C201.997 15.8778 201.622 15.0995 201.015 14.5159C200.438 13.9322 199.499 13.6403 198.199 13.6403C196.871 13.6403 195.875 13.9646 195.21 14.6131C194.575 15.2292 194.156 16.1048 193.954 17.2397C193.752 18.3422 193.651 19.8338 193.651 21.7146V37.328C193.651 39.3385 193.795 40.9112 194.084 42.0461C194.373 43.181 194.835 43.9917 195.47 44.4781C196.135 44.9645 197.044 45.2077 198.199 45.2077C199.441 45.2077 200.365 44.8997 200.972 44.2836C201.578 43.6674 201.954 42.8244 202.098 41.7543C202.271 40.6842 202.358 39.225 202.358 37.3767V34.4583H206.993V37.3767C206.993 41.3003 206.329 44.316 205 46.4237C203.701 48.499 201.419 49.5367 198.156 49.5367ZM211.656 9.7005H216.551V26.7245H225.562V9.7005H230.457V49.0989H225.562V30.6643H216.551V49.0989H211.656V9.7005ZM244.906 49.5367C241.469 49.5367 239 48.4504 237.498 46.2778C236.026 44.0728 235.289 40.8949 235.289 36.7444V21.8119C235.289 17.7261 236.04 14.6294 237.542 12.5216C239.043 10.4139 241.498 9.36002 244.906 9.36002C248.313 9.36002 250.754 10.4301 252.227 12.5703C253.728 14.678 254.479 17.7586 254.479 21.8119V36.793C254.479 40.8787 253.728 44.0242 252.227 46.2292C250.725 48.4341 248.285 49.5367 244.906 49.5367ZM244.906 45.2077C246.725 45.2077 247.952 44.6078 248.588 43.408C249.223 42.2082 249.541 40.3924 249.541 37.9604V20.6931C249.541 18.2936 249.223 16.5263 248.588 15.3914C247.952 14.224 246.725 13.6403 244.906 13.6403C243.057 13.6403 241.815 14.224 241.18 15.3914C240.545 16.5263 240.227 18.2936 240.227 20.6931V37.9604C240.227 40.3924 240.545 42.2082 241.18 43.408C241.815 44.6078 243.057 45.2077 244.906 45.2077ZM268.257 49.5367C264.82 49.5367 262.351 48.4504 260.85 46.2778C259.377 44.0728 258.641 40.8949 258.641 36.7444V21.8119C258.641 17.7261 259.391 14.6294 260.893 12.5216C262.395 10.4139 264.849 9.36002 268.257 9.36002C271.665 9.36002 274.105 10.4301 275.578 12.5703C277.08 14.678 277.831 17.7586 277.831 21.8119V36.793C277.831 40.8787 277.08 44.0242 275.578 46.2292C274.076 48.4341 271.636 49.5367 268.257 49.5367ZM268.257 45.2077C270.077 45.2077 271.304 44.6078 271.94 43.408C272.574 42.2082 272.893 40.3924 272.893 37.9604V20.6931C272.893 18.2936 272.574 16.5263 271.94 15.3914C271.304 14.224 270.077 13.6403 268.257 13.6403C266.409 13.6403 265.167 14.224 264.532 15.3914C263.896 16.5263 263.579 18.2936 263.579 20.6931V37.9604C263.579 40.3924 263.896 42.2082 264.532 43.408C265.167 44.6078 266.409 45.2077 268.257 45.2077ZM282.642 9.7005H287.537V45.1591H296.504V49.0989H282.642V9.7005Z" fill="#060D10" stroke="#060D10"/>
<path d="M154.276 47.9939C153.808 46.9036 152.741 46.2984 151.272 46.2897C150.379 46.2846 149.376 46.5033 148.372 46.9152L138.698 24.4025L145.775 7.93365C145.776 8.04003 145.777 8.14745 145.778 8.25772C145.785 9.28651 145.792 10.3502 146.106 11.3471C146.342 12.0982 146.777 12.6635 147.365 12.982C147.365 12.9821 147.365 12.9821 147.365 12.9821C147.692 13.1589 148.06 13.2566 148.458 13.2717C149.724 13.3203 151.844 12.7486 152.144 11.008C152.475 9.07686 150.583 7.83531 149.775 7.30522L149.673 7.23801C149.033 6.81858 148.37 6.38475 147.853 5.81198C147.699 5.64151 147.564 5.45781 147.447 5.2623L148.198 3.51413C148.572 2.64375 148.245 1.59394 147.47 1.17399C146.695 0.754042 145.76 1.12054 145.386 1.99093L143.935 5.36816C143.745 5.81029 143.737 6.29848 143.875 6.72725L137.489 21.5888L131.103 6.72725C131.241 6.29848 131.233 5.81042 131.043 5.36816L129.591 1.99093C129.217 1.12054 128.283 0.754042 127.507 1.17399C126.732 1.59394 126.406 2.64375 126.78 3.51413L127.531 5.2623C127.414 5.45781 127.278 5.64151 127.124 5.81198C126.607 6.38475 125.945 6.81858 125.305 7.23801L125.203 7.30522C124.394 7.83531 122.502 9.07686 122.834 11.008C123.133 12.7486 125.254 13.3203 126.52 13.2717C126.918 13.2566 127.286 13.1589 127.612 12.9821C127.613 12.9821 127.613 12.9821 127.613 12.9821C128.2 12.6636 128.636 12.0982 128.872 11.3471C129.186 10.3501 129.193 9.28638 129.2 8.25772C129.201 8.14745 129.202 8.04003 129.203 7.93365L136.28 24.4025L126.606 46.9152C125.602 46.5032 124.599 46.2846 123.705 46.2897C122.237 46.2983 121.17 46.9035 120.701 47.9939C120.233 49.0843 120.475 50.3987 121.383 51.6947C121.876 52.3989 122.548 53.0677 123.335 53.6486L122.867 57.5379C122.846 57.7127 122.927 57.8828 123.069 57.9596C123.21 58.0361 123.38 58.0019 123.489 57.8747L125.909 55.0429C126.803 55.3733 127.688 55.5478 128.486 55.543C129.954 55.5346 131.021 54.9294 131.49 53.8387C131.958 52.7484 131.716 51.4342 130.808 50.138C130.256 49.3493 129.479 48.6042 128.567 47.9782L137.489 27.2163L146.41 47.978C145.498 48.6039 144.722 49.349 144.169 50.1378C143.261 51.434 143.019 52.7482 143.488 53.8384C143.956 54.929 145.023 55.5342 146.492 55.5428C147.29 55.5474 148.174 55.3729 149.069 55.0426L151.489 57.8745C151.598 58.0016 151.767 58.0359 151.909 57.9593C152.05 57.8825 152.132 57.7124 152.111 57.5377L151.642 53.6484C152.43 53.0674 153.102 52.3987 153.595 51.6945C154.503 50.3987 154.745 49.0843 154.276 47.9939ZM148.322 8.22503C148.509 8.35489 148.703 8.47853 148.891 8.59815C149.361 8.89757 149.805 9.18026 150.169 9.5622C150.575 9.98915 150.774 10.3754 150.726 10.6496C150.663 11.0176 150.256 11.2984 149.483 11.5085C149.047 11.6265 148.497 11.742 148.106 11.5844C148.072 11.5709 148.039 11.5556 148.008 11.5387C147.492 11.2587 147.359 10.4984 147.298 9.79157C147.252 9.25174 147.243 8.69233 147.234 8.15134C147.23 7.88694 147.226 7.61839 147.217 7.34829C147.529 7.63967 147.891 7.92547 148.322 8.22503ZM127.744 8.15134C127.735 8.69233 127.726 9.25161 127.68 9.79157C127.618 10.4984 127.486 11.2587 126.969 11.5387C126.938 11.5556 126.906 11.5709 126.872 11.5844C126.481 11.742 125.931 11.6265 125.495 11.5085C124.722 11.2984 124.315 11.0176 124.252 10.6496C124.204 10.3754 124.403 9.98915 124.809 9.5622C125.173 9.18039 125.617 8.89757 126.087 8.59815C126.274 8.47853 126.468 8.35489 126.656 8.22503C127.087 7.92547 127.448 7.63967 127.761 7.34829C127.752 7.61839 127.748 7.88694 127.744 8.15134ZM129.528 52.7759C129.382 53.1156 127.78 53.4581 125.528 52.2378C123.276 51.0176 122.517 49.3964 122.663 49.0567C122.786 48.7705 123.944 48.4821 125.654 49.13L124.767 51.1951L126.729 52.2576L127.616 50.1925C129.132 51.2925 129.651 52.4899 129.528 52.7759ZM149.45 52.2378C147.198 53.4581 145.595 53.1157 145.449 52.7759C145.327 52.4899 145.846 51.2924 147.362 50.1927L148.249 52.2578L150.211 51.1952L149.324 49.1301C151.034 48.4822 152.192 48.7706 152.315 49.0568C152.461 49.3962 151.702 51.0175 149.45 52.2378Z" fill="#060D10" stroke="#060D10"/>
</svg>
